<svg xmlns="http://www.w3.org/2000/svg" width="17" height="8.965" viewBox="0 0 17 8.965">
  <g id="eye" transform="translate(0)">
    <g id="Group_4463" data-name="Group 4463" transform="translate(0 0)">
      <g id="Group_4462" data-name="Group 4462">
        <path id="Path_10490" data-name="Path 10490" d="M16.873,125.15c-.152-.169-3.8-4.15-8.373-4.15S.278,124.981.126,125.15a.5.5,0,0,0,0,.664c.152.169,3.8,4.15,8.373,4.15s8.221-3.981,8.373-4.15A.5.5,0,0,0,16.873,125.15ZM8.5,128.969a3.486,3.486,0,1,1,3.486-3.486A3.491,3.491,0,0,1,8.5,128.969Z" transform="translate(0.001 -121)" fill="#fff"/>
      </g>
    </g>
    <g id="Group_4465" data-name="Group 4465" transform="translate(6.01 1.992)">
      <g id="Group_4464" data-name="Group 4464">
        <path id="Path_10491" data-name="Path 10491" d="M183.988,182.494a1.489,1.489,0,0,1,.627-1.213A2.458,2.458,0,0,0,183.49,181a2.49,2.49,0,1,0,2.448,2.91A1.485,1.485,0,0,1,183.988,182.494Z" transform="translate(-181 -181)" fill="#fff"/>
      </g>
    </g>
  </g>
</svg>
