<svg id="list" xmlns="http://www.w3.org/2000/svg" width="18.694" height="18.694" viewBox="0 0 18.694 18.694">
  <path id="Path_10477" data-name="Path 10477" d="M2.629,5.258A2.629,2.629,0,1,1,5.258,2.629,2.632,2.632,0,0,1,2.629,5.258Zm0-4.089a1.46,1.46,0,1,0,1.46,1.46A1.462,1.462,0,0,0,2.629,1.168Z" fill="#b69256"/>
  <path id="Path_10478" data-name="Path 10478" d="M2.629,189.258a2.629,2.629,0,1,1,2.629-2.629A2.632,2.632,0,0,1,2.629,189.258Zm0-4.089a1.46,1.46,0,1,0,1.46,1.46A1.462,1.462,0,0,0,2.629,185.168Z" transform="translate(0 -177.282)" fill="#b69256"/>
  <path id="Path_10479" data-name="Path 10479" d="M2.629,373.258a2.629,2.629,0,1,1,2.629-2.629A2.632,2.632,0,0,1,2.629,373.258Zm0-4.089a1.46,1.46,0,1,0,1.46,1.46A1.462,1.462,0,0,0,2.629,369.168Z" transform="translate(0 -354.563)" fill="#b69256"/>
  <path id="Path_10480" data-name="Path 10480" d="M185.639,5.258h-7.01a2.629,2.629,0,0,1,0-5.258h7.01a2.629,2.629,0,1,1,0,5.258Z" transform="translate(-169.574)" fill="#b69256"/>
  <path id="Path_10481" data-name="Path 10481" d="M185.639,189.258h-7.01a2.629,2.629,0,0,1,0-5.258h7.01a2.629,2.629,0,1,1,0,5.258Z" transform="translate(-169.574 -177.282)" fill="#b69256"/>
  <path id="Path_10482" data-name="Path 10482" d="M185.639,373.258h-7.01a2.629,2.629,0,0,1,0-5.258h7.01a2.629,2.629,0,1,1,0,5.258Z" transform="translate(-169.574 -354.563)" fill="#b69256"/>
</svg>
