<svg id="mission-2" xmlns="http://www.w3.org/2000/svg" width="22.279" height="22.279" viewBox="0 0 22.279 22.279">
  <path id="Path_10483" data-name="Path 10483" d="M14.4,145.378v-2a.646.646,0,0,0-.653-.653H8.529a1.958,1.958,0,0,1,0-3.916h3.916a.653.653,0,1,0-.013-1.305,1.94,1.94,0,0,1-1.945-1.958V128.7L0,145.378Z" transform="translate(0 -123.099)" fill="#b69256"/>
  <path id="Path_10484" data-name="Path 10484" d="M184.916,135.544a.648.648,0,0,0,.627.653h.026a1.958,1.958,0,0,1,0,3.916h-3.916a.653.653,0,0,0,0,1.305h5.222a1.955,1.955,0,0,1,1.958,1.958v2H195.4L184.916,128.7Z" transform="translate(-173.124 -123.099)" fill="#b69256"/>
  <path id="Path_10485" data-name="Path 10485" d="M248.454,3.916,246.5,1.958,248.454,0H241V5.6l.653-1.031.653,1.031V3.916Z" transform="translate(-230.513)" fill="#b69256"/>
</svg>
