<svg xmlns="http://www.w3.org/2000/svg" width="23.031" height="18.694" viewBox="0 0 23.031 18.694">
  <g id="target" transform="translate(0 -48.2)">
    <path id="Path_10473" data-name="Path 10473" d="M358.6,180.3l1.864-2.486a.675.675,0,0,0-.54-1.08H356.31a.675.675,0,0,0-.54.27l-2.168,2.891a.675.675,0,0,0,0,.81l2.168,2.891a.675.675,0,0,0,.54.27h3.613a.675.675,0,0,0,.54-1.08Z" transform="translate(-337.568 -122.751)" fill="#b69256"/>
    <path id="Path_10474" data-name="Path 10474" d="M102.875,146.9h1.562a5.107,5.107,0,1,0,0,1.349h-1.562a3.566,3.566,0,1,1,0-1.349Z" transform="translate(-90.027 -90.027)" fill="#b69256"/>
    <path id="Path_10475" data-name="Path 10475" d="M17.123,61.653l-1.62-2.16a6.456,6.456,0,1,1,0-3.892l1.62-2.159a2.012,2.012,0,0,1,.411-.408,9.347,9.347,0,1,0,0,9.027A2.011,2.011,0,0,1,17.123,61.653Z" fill="#b69256"/>
    <path id="Path_10476" data-name="Path 10476" d="M160.749,208.274h2.111a2.216,2.216,0,1,0,0,1.349h-2.111a.675.675,0,0,1,0-1.349Z" transform="translate(-151.402 -151.402)" fill="#b69256"/>
  </g>
</svg>
