<svg xmlns="http://www.w3.org/2000/svg" width="21.354" height="21.354" viewBox="0 0 21.354 21.354">
  <g id="calendar" transform="translate(-2 -2)">
    <path id="Path_10018" data-name="Path 10018" d="M20.507,5.2A1.424,1.424,0,0,0,19.083,3.78h-.356V4.847a.712.712,0,0,1-.712.712H17.3a.712.712,0,0,0,.712-.712V2.712a.712.712,0,0,0-1.424,0V3.78h-1.78V4.847a.712.712,0,0,1-.712.712h-.712a.712.712,0,0,0,.712-.712V2.712a.712.712,0,0,0-1.424,0V3.78H10.542V4.847a.712.712,0,0,1-.712.712H9.118a.712.712,0,0,0,.712-.712V2.712a.712.712,0,1,0-1.424,0V3.78H6.627V4.847a.712.712,0,0,1-.712.712H5.2a.712.712,0,0,0,.712-.712V2.712a.712.712,0,0,0-1.424,0V3.78H3.424A1.424,1.424,0,0,0,2,5.2V7.339H20.507Z" fill="#b69256"/>
    <path id="Path_10019" data-name="Path 10019" d="M43.915,40a3.915,3.915,0,1,0,3.915,3.915A3.915,3.915,0,0,0,43.915,40Zm0,4.627a.707.707,0,0,1-.258-.05l-1.3,1.04-.445-.556,1.3-1.04a.68.68,0,0,1,.345-.718V41.068h.712V43.3a.71.71,0,0,1-.356,1.325Z" transform="translate(-24.476 -24.476)" fill="#b69256"/>
    <path id="Path_10020" data-name="Path 10020" d="M3.424,32.168H15.168a4.627,4.627,0,0,1,2.491-6.05H15.88V23.983h2.135v2.005a4.556,4.556,0,0,1,2.491-.1V19H2V30.745a1.423,1.423,0,0,0,1.424,1.424Zm12.457-12.1h2.135V22.2H15.88Zm-3.915,0H14.1V22.2H11.965Zm0,3.915H14.1v2.135H11.965Zm0,3.915H14.1v2.135H11.965ZM8.05,20.068h2.135V22.2H8.05Zm0,3.915h2.135v2.135H8.05Zm0,3.915h2.135v2.135H8.05Zm-3.915-7.83H6.271V22.2H4.135Zm0,3.915H6.271v2.135H4.135Zm0,3.915H6.271v2.135H4.135Z" transform="translate(0 -10.95)" fill="#b69256"/>
  </g>
</svg>
