<svg xmlns="http://www.w3.org/2000/svg" width="21.355" height="21.354" viewBox="0 0 21.355 21.354">
  <g id="Page-1" transform="translate(2.003 1)">
    <g id="_003---Call" data-name="003---Call" transform="translate(-2.003 -1)">
      <path id="Shape" d="M9.84,12.549a8.618,8.618,0,0,1-2.6-4.893.732.732,0,0,1,.21-.613L9.1,5.395a.736.736,0,0,0,.1-.911L6.575.406A.736.736,0,0,0,5.621.137L1.405,2.123a.732.732,0,0,0-.4.732A20.379,20.379,0,0,0,7.206,15.182a20.374,20.374,0,0,0,12.328,6.206.732.732,0,0,0,.732-.4l1.986-4.216a.736.736,0,0,0-.267-.952l-4.078-2.625a.736.736,0,0,0-.911.1l-1.649,1.649a.732.732,0,0,1-.613.21,8.618,8.618,0,0,1-4.893-2.6Z" transform="translate(-0.997 -0.038)" fill="#b69256"/>
      <path id="Shape-2" data-name="Shape" d="M35,17.732A.736.736,0,0,1,34.259,17a5.529,5.529,0,0,0-5.523-5.523.736.736,0,1,1,0-1.473,7,7,0,0,1,7,7A.736.736,0,0,1,35,17.732Z" transform="translate(-18.058 -6.318)" fill="#b69256"/>
      <path id="Shape-3" data-name="Shape" d="M38.677,11.413a.736.736,0,0,1-.736-.736,9.215,9.215,0,0,0-9.2-9.2.736.736,0,1,1,0-1.473A10.689,10.689,0,0,1,39.413,10.677a.736.736,0,0,1-.736.736Z" transform="translate(-18.058)" fill="#b69256"/>
    </g>
  </g>
</svg>
