<svg xmlns="http://www.w3.org/2000/svg" width="21.514" height="21.354" viewBox="0 0 21.514 21.354">
  <g id="Group_4597" data-name="Group 4597" transform="translate(0 -0.178)">
    <path id="Path_10014" data-name="Path 10014" d="M11.68,1.695,1.829.2A1.589,1.589,0,0,0,.556.547,1.6,1.6,0,0,0,0,1.748V20.636a.9.9,0,0,0,.9.9H3.81V16.826a1.565,1.565,0,0,1,1.569-1.569H7.619a1.565,1.565,0,0,1,1.569,1.569v4.706H13V3.245A1.57,1.57,0,0,0,11.68,1.695ZM4.93,13.24H3.586a.672.672,0,1,1,0-1.345H4.93a.672.672,0,0,1,0,1.345Zm0-2.689H3.586a.672.672,0,0,1,0-1.345H4.93a.672.672,0,0,1,0,1.345Zm0-2.689H3.586a.672.672,0,1,1,0-1.345H4.93a.672.672,0,1,1,0,1.345Zm0-2.689H3.586a.672.672,0,1,1,0-1.345H4.93a.672.672,0,1,1,0,1.345ZM9.412,13.24H8.068a.672.672,0,1,1,0-1.345H9.412a.672.672,0,0,1,0,1.345Zm0-2.689H8.068a.672.672,0,0,1,0-1.345H9.412a.672.672,0,0,1,0,1.345Zm0-2.689H8.068a.672.672,0,1,1,0-1.345H9.412a.672.672,0,1,1,0,1.345Zm0-2.689H8.068a.672.672,0,1,1,0-1.345H9.412a.672.672,0,1,1,0,1.345Z" fill="#b69256"/>
    <path id="Path_10015" data-name="Path 10015" d="M21.882,10.688,15.5,9.351V22.482h6.051a1.57,1.57,0,0,0,1.569-1.569V12.22A1.561,1.561,0,0,0,21.882,10.688Zm-2.124,9.106H18.413a.672.672,0,0,1,0-1.345h1.345a.672.672,0,0,1,0,1.345Zm0-2.689H18.413a.672.672,0,1,1,0-1.345h1.345a.672.672,0,1,1,0,1.345Zm0-2.689H18.413a.672.672,0,1,1,0-1.345h1.345a.672.672,0,1,1,0,1.345Z" transform="translate(-1.606 -0.951)" fill="#b69256"/>
  </g>
</svg>
