<svg xmlns="http://www.w3.org/2000/svg" width="22.231" height="15.284" viewBox="0 0 22.231 15.284">
  <g id="email" transform="translate(22.231 95.284) rotate(180)">
    <g id="Group_12" data-name="Group 12" transform="translate(14.737 82.79)">
      <g id="Group_11" data-name="Group 11" transform="translate(0 0)">
        <path id="Path_9998" data-name="Path 9998" d="M339.392,149.634l7.495-4.738v9.676Z" transform="translate(-339.392 -144.896)" fill="#b69256"/>
      </g>
    </g>
    <g id="Group_14" data-name="Group 14" transform="translate(0 82.79)">
      <g id="Group_13" data-name="Group 13" transform="translate(0 0)">
        <path id="Path_9999" data-name="Path 9999" d="M0,154.572V144.9l7.495,4.738Z" transform="translate(0 -144.896)" fill="#b69256"/>
      </g>
    </g>
    <g id="Group_16" data-name="Group 16" transform="translate(0.042 86.806)">
      <g id="Group_15" data-name="Group 15" transform="translate(0 0)">
        <path id="Path_10000" data-name="Path 10000" d="M21.76,88.479H2.308A1.372,1.372,0,0,1,.96,87.3L12.034,80l11.074,7.3A1.372,1.372,0,0,1,21.76,88.479Z" transform="translate(-0.96 -80)" fill="#b69256"/>
      </g>
    </g>
    <g id="Group_18" data-name="Group 18" transform="translate(0.044 80)">
      <g id="Group_17" data-name="Group 17" transform="translate(0 0)">
        <path id="Path_10001" data-name="Path 10001" d="M14.443,284.609l-1.966-1.295a.7.7,0,0,0-.764,0l-1.966,1.3-8.723-5.518a1.37,1.37,0,0,1,1.345-1.173H21.822a1.37,1.37,0,0,1,1.345,1.173Z" transform="translate(-1.024 -277.92)" fill="#b69256"/>
      </g>
    </g>
  </g>
</svg>
